<svg xmlns="http://www.w3.org/2000/svg" viewBox="0 0 240 240">
  <defs>
    <linearGradient id="bg" x1="0" y1="0" x2="1" y2="1">
      <stop offset="0" stop-color="#d8b39c"/>
      <stop offset="1" stop-color="#9f725c"/>
    </linearGradient>
    <linearGradient id="skin" x1="0" y1="0" x2="1" y2="1">
      <stop offset="0" stop-color="#f1c9b2"/>
      <stop offset="1" stop-color="#c98f72"/>
    </linearGradient>
  </defs>
  <rect width="240" height="240" fill="url(#bg)"/>
  <path d="M35 240c6-50 27-77 65-91 42-16 79-8 110 22 15 15 24 38 30 69z" fill="#c69b80"/>
  <path d="M65 56c18-41 80-57 122-20 32 28 34 87 4 121-25 29-74 31-106 6-32-24-39-72-20-107z" fill="#5c3428"/>
  <ellipse cx="131" cy="102" rx="54" ry="69" fill="url(#skin)"/>
  <path d="M75 72c13-42 68-64 108-34 20 15 29 37 30 62-21-7-35-28-40-49-20 25-51 39-98 42z" fill="#6c3d2e"/>
  <path d="M153 97c11 3 16 8 21 15-9 4-17 3-24-1" fill="none" stroke="#6e4435" stroke-width="3" stroke-linecap="round"/>
  <path d="M152 131c11 7 23 7 34-1" fill="none" stroke="#a95e58" stroke-width="3" stroke-linecap="round"/>
  <circle cx="166" cy="105" r="3" fill="#3f2a24"/>
  <path d="M54 225c8-34 13-61 17-82 4-25 7-52 19-55 10-3 15 7 12 21l-7 38 18-54c4-12 19-9 17 4l-11 51 20-43c6-12 20-5 15 7l-18 48 21-28c8-11 21-1 14 10l-35 52-11 31z" fill="url(#skin)"/>
  <path d="M67 188c18 9 37 13 59 12" fill="none" stroke="#d9b35f" stroke-width="5" stroke-linecap="round"/>
  <circle cx="98" cy="198" r="6" fill="#f4dc87" stroke="#fff2bd" stroke-width="2"/>
  <path d="M159 171c3 17 13 29 28 37" fill="none" stroke="#e1bd66" stroke-width="3"/>
  <circle cx="188" cy="208" r="5" fill="#fff1ab"/>
</svg>
